<mxfile host="app.diagrams.net" modified="2022-06-04T22:07:10.944Z" agent="5.0 (Windows NT 10.0; Win64; x64) AppleWebKit/537.36 (KHTML, like Gecko) Chrome/102.0.5005.63 Safari/537.36" etag="HkGlov16SN2hoeU9K6qa" version="19.0.0" type="github">
  <diagram id="hwEnMFRsd4231ranK771" name="Page-1">
    <mxGraphModel dx="1128" dy="1766" grid="1" gridSize="10" guides="1" tooltips="1" connect="1" arrows="1" fold="1" page="1" pageScale="1" pageWidth="827" pageHeight="1169" math="0" shadow="0">
      <root>
        <mxCell id="0" />
        <mxCell id="1" parent="0" />
        <mxCell id="HtaL5qtSipClP9a9sMlD-21" style="edgeStyle=none;orthogonalLoop=1;jettySize=auto;html=1;exitX=-0.008;exitY=0.16;exitDx=0;exitDy=0;endArrow=none;endFill=0;rounded=0;exitPerimeter=0;startArrow=block;startFill=1;entryX=1;entryY=0.5;entryDx=0;entryDy=0;" parent="1" source="HtaL5qtSipClP9a9sMlD-106" target="HtaL5qtSipClP9a9sMlD-121" edge="1">
          <mxGeometry relative="1" as="geometry">
            <mxPoint x="260" y="-1039" as="targetPoint" />
            <mxPoint x="370.5" y="-1037.0320000000002" as="sourcePoint" />
          </mxGeometry>
        </mxCell>
        <mxCell id="HtaL5qtSipClP9a9sMlD-22" value="&amp;nbsp;*" style="text;html=1;strokeColor=none;fillColor=none;align=center;verticalAlign=middle;whiteSpace=wrap;rounded=0;" parent="1" vertex="1">
          <mxGeometry x="373" y="-860" width="40" height="20" as="geometry" />
        </mxCell>
        <mxCell id="HtaL5qtSipClP9a9sMlD-24" value="borrados" style="text;html=1;strokeColor=none;fillColor=none;align=center;verticalAlign=middle;whiteSpace=wrap;rounded=0;" parent="1" vertex="1">
          <mxGeometry x="360" y="-915" width="40" height="20" as="geometry" />
        </mxCell>
        <mxCell id="HtaL5qtSipClP9a9sMlD-25" value="&lt;font style=&quot;font-size: 22px&quot;&gt;Cliente de e-mail&lt;/font&gt;" style="text;html=1;strokeColor=none;fillColor=none;align=center;verticalAlign=middle;whiteSpace=wrap;rounded=0;" parent="1" vertex="1">
          <mxGeometry x="20" y="-1140" width="170" height="20" as="geometry" />
        </mxCell>
        <mxCell id="HtaL5qtSipClP9a9sMlD-71" value="servidor" style="text;html=1;strokeColor=none;fillColor=none;align=center;verticalAlign=middle;whiteSpace=wrap;rounded=0;" parent="1" vertex="1">
          <mxGeometry x="300" y="-1060" width="40" height="20" as="geometry" />
        </mxCell>
        <mxCell id="HtaL5qtSipClP9a9sMlD-72" style="edgeStyle=none;orthogonalLoop=1;jettySize=auto;html=1;exitX=0;exitY=0;exitDx=0;exitDy=0;endArrow=none;endFill=0;rounded=0;startArrow=block;startFill=1;entryX=1.003;entryY=-0.162;entryDx=0;entryDy=0;entryPerimeter=0;" parent="1" source="HtaL5qtSipClP9a9sMlD-93" target="HtaL5qtSipClP9a9sMlD-116" edge="1">
          <mxGeometry relative="1" as="geometry">
            <mxPoint x="259.28" y="-1026.234" as="targetPoint" />
            <mxPoint x="395.03999999999996" y="-829.9799999999999" as="sourcePoint" />
          </mxGeometry>
        </mxCell>
        <mxCell id="HtaL5qtSipClP9a9sMlD-73" value="inbox" style="text;html=1;strokeColor=none;fillColor=none;align=center;verticalAlign=middle;whiteSpace=wrap;rounded=0;" parent="1" vertex="1">
          <mxGeometry x="300" y="-915" width="40" height="20" as="geometry" />
        </mxCell>
        <mxCell id="HtaL5qtSipClP9a9sMlD-76" value="1" style="text;html=1;strokeColor=none;fillColor=none;align=center;verticalAlign=middle;whiteSpace=wrap;rounded=0;" parent="1" vertex="1">
          <mxGeometry x="340" y="-1060" width="40" height="20" as="geometry" />
        </mxCell>
        <mxCell id="HtaL5qtSipClP9a9sMlD-77" style="edgeStyle=none;orthogonalLoop=1;jettySize=auto;html=1;endArrow=none;endFill=0;rounded=0;startArrow=block;startFill=1;entryX=1.01;entryY=0.154;entryDx=0;entryDy=0;entryPerimeter=0;dashed=1;" parent="1" target="HtaL5qtSipClP9a9sMlD-105" edge="1">
          <mxGeometry relative="1" as="geometry">
            <mxPoint x="621.75" y="-1059.9499999999998" as="targetPoint" />
            <mxPoint x="750" y="-1055" as="sourcePoint" />
          </mxGeometry>
        </mxCell>
        <mxCell id="HtaL5qtSipClP9a9sMlD-85" value="&amp;lt;&amp;lt;interface&amp;gt;&amp;gt;&lt;br&gt;&lt;span style=&quot;font-size: 12px ; font-weight: 700&quot;&gt;IServidor&lt;/span&gt;" style="swimlane;fontStyle=0;align=center;verticalAlign=top;childLayout=stackLayout;horizontal=1;startSize=42;horizontalStack=0;resizeParent=1;resizeParentMax=0;resizeLast=0;collapsible=0;marginBottom=0;html=1;labelBackgroundColor=none;labelBorderColor=none;fontSize=11;" parent="1" vertex="1">
          <mxGeometry x="750" y="-1085" width="260" height="170" as="geometry" />
        </mxCell>
        <mxCell id="HtaL5qtSipClP9a9sMlD-90" value="" style="line;strokeWidth=1;fillColor=none;align=left;verticalAlign=middle;spacingTop=-1;spacingLeft=3;spacingRight=3;rotatable=0;labelPosition=right;points=[];portConstraint=eastwest;labelBackgroundColor=none;labelBorderColor=none;fontSize=11;html=1;" parent="HtaL5qtSipClP9a9sMlD-85" vertex="1">
          <mxGeometry y="42" width="260" height="8" as="geometry" />
        </mxCell>
        <mxCell id="HtaL5qtSipClP9a9sMlD-92" value="&lt;span style=&quot;font-size: 12px&quot;&gt;+ recibirNuevos(String, String): List&amp;lt;Correo&amp;gt;&lt;/span&gt;" style="text;html=1;strokeColor=none;fillColor=none;align=left;verticalAlign=middle;spacingLeft=4;spacingRight=4;overflow=hidden;rotatable=0;points=[[0,0.5],[1,0.5]];portConstraint=eastwest;labelBackgroundColor=none;labelBorderColor=none;fontSize=11;" parent="HtaL5qtSipClP9a9sMlD-85" vertex="1">
          <mxGeometry y="50" width="260" height="20" as="geometry" />
        </mxCell>
        <mxCell id="HtaL5qtSipClP9a9sMlD-100" value="&lt;span style=&quot;font-size: 12px&quot;&gt;+ conectar(String, String): void&lt;/span&gt;" style="text;html=1;strokeColor=none;fillColor=none;align=left;verticalAlign=middle;spacingLeft=4;spacingRight=4;overflow=hidden;rotatable=0;points=[[0,0.5],[1,0.5]];portConstraint=eastwest;labelBackgroundColor=none;labelBorderColor=none;fontSize=11;" parent="HtaL5qtSipClP9a9sMlD-85" vertex="1">
          <mxGeometry y="70" width="260" height="20" as="geometry" />
        </mxCell>
        <mxCell id="HtaL5qtSipClP9a9sMlD-101" value="&lt;span style=&quot;font-size: 12px&quot;&gt;+ enviar(Correo): void&lt;/span&gt;" style="text;html=1;strokeColor=none;fillColor=none;align=left;verticalAlign=middle;spacingLeft=4;spacingRight=4;overflow=hidden;rotatable=0;points=[[0,0.5],[1,0.5]];portConstraint=eastwest;labelBackgroundColor=none;labelBorderColor=none;fontSize=11;" parent="HtaL5qtSipClP9a9sMlD-85" vertex="1">
          <mxGeometry y="90" width="260" height="20" as="geometry" />
        </mxCell>
        <mxCell id="HtaL5qtSipClP9a9sMlD-102" value="&lt;span style=&quot;font-size: 12px&quot;&gt;+ tazaDeTransferencia(): float&lt;/span&gt;" style="text;html=1;strokeColor=none;fillColor=none;align=left;verticalAlign=middle;spacingLeft=4;spacingRight=4;overflow=hidden;rotatable=0;points=[[0,0.5],[1,0.5]];portConstraint=eastwest;labelBackgroundColor=none;labelBorderColor=none;fontSize=11;" parent="HtaL5qtSipClP9a9sMlD-85" vertex="1">
          <mxGeometry y="110" width="260" height="20" as="geometry" />
        </mxCell>
        <mxCell id="HtaL5qtSipClP9a9sMlD-103" value="&lt;span style=&quot;font-size: 12px&quot;&gt;+ resetear(): void&lt;/span&gt;" style="text;html=1;strokeColor=none;fillColor=none;align=left;verticalAlign=middle;spacingLeft=4;spacingRight=4;overflow=hidden;rotatable=0;points=[[0,0.5],[1,0.5]];portConstraint=eastwest;labelBackgroundColor=none;labelBorderColor=none;fontSize=11;" parent="HtaL5qtSipClP9a9sMlD-85" vertex="1">
          <mxGeometry y="130" width="260" height="20" as="geometry" />
        </mxCell>
        <mxCell id="HtaL5qtSipClP9a9sMlD-104" value="&lt;span style=&quot;font-size: 12px&quot;&gt;+ realizarBackUp(): void&lt;/span&gt;" style="text;html=1;strokeColor=none;fillColor=none;align=left;verticalAlign=middle;spacingLeft=4;spacingRight=4;overflow=hidden;rotatable=0;points=[[0,0.5],[1,0.5]];portConstraint=eastwest;labelBackgroundColor=none;labelBorderColor=none;fontSize=11;" parent="HtaL5qtSipClP9a9sMlD-85" vertex="1">
          <mxGeometry y="150" width="260" height="20" as="geometry" />
        </mxCell>
        <mxCell id="HtaL5qtSipClP9a9sMlD-93" value="&lt;span style=&quot;font-size: 12px ; font-weight: 700&quot;&gt;Correo&lt;/span&gt;" style="swimlane;fontStyle=0;align=center;verticalAlign=top;childLayout=stackLayout;horizontal=1;startSize=30;horizontalStack=0;resizeParent=1;resizeParentMax=0;resizeLast=0;collapsible=0;marginBottom=0;html=1;labelBackgroundColor=none;labelBorderColor=none;fontSize=11;" parent="1" vertex="1">
          <mxGeometry x="400" y="-830" width="160" height="58" as="geometry" />
        </mxCell>
        <mxCell id="HtaL5qtSipClP9a9sMlD-97" value="" style="line;strokeWidth=1;fillColor=none;align=left;verticalAlign=middle;spacingTop=-1;spacingLeft=3;spacingRight=3;rotatable=0;labelPosition=right;points=[];portConstraint=eastwest;labelBackgroundColor=none;labelBorderColor=none;fontSize=11;html=1;" parent="HtaL5qtSipClP9a9sMlD-93" vertex="1">
          <mxGeometry y="30" width="160" height="8" as="geometry" />
        </mxCell>
        <mxCell id="HtaL5qtSipClP9a9sMlD-94" value="&lt;span style=&quot;font-size: 12px&quot;&gt;&lt;u&gt;&lt;i&gt;+ new(String, String, String)&lt;/i&gt;&lt;/u&gt;&lt;/span&gt;" style="text;html=1;strokeColor=none;fillColor=none;align=left;verticalAlign=middle;spacingLeft=4;spacingRight=4;overflow=hidden;rotatable=0;points=[[0,0.5],[1,0.5]];portConstraint=eastwest;labelBackgroundColor=none;labelBorderColor=none;fontSize=11;" parent="HtaL5qtSipClP9a9sMlD-93" vertex="1">
          <mxGeometry y="38" width="160" height="20" as="geometry" />
        </mxCell>
        <mxCell id="HtaL5qtSipClP9a9sMlD-105" value="&lt;span style=&quot;font-size: 12px ; font-weight: 700&quot;&gt;ServidorPop&lt;/span&gt;" style="swimlane;fontStyle=0;align=center;verticalAlign=top;childLayout=stackLayout;horizontal=1;startSize=30;horizontalStack=0;resizeParent=1;resizeParentMax=0;resizeLast=0;collapsible=0;marginBottom=0;html=1;labelBackgroundColor=none;labelBorderColor=none;fontSize=11;" parent="1" vertex="1">
          <mxGeometry x="400" y="-1079" width="250" height="158" as="geometry" />
        </mxCell>
        <mxCell id="HtaL5qtSipClP9a9sMlD-107" value="" style="line;strokeWidth=1;fillColor=none;align=left;verticalAlign=middle;spacingTop=-1;spacingLeft=3;spacingRight=3;rotatable=0;labelPosition=right;points=[];portConstraint=eastwest;labelBackgroundColor=none;labelBorderColor=none;fontSize=11;html=1;" parent="HtaL5qtSipClP9a9sMlD-105" vertex="1">
          <mxGeometry y="30" width="250" height="8" as="geometry" />
        </mxCell>
        <mxCell id="HtaL5qtSipClP9a9sMlD-106" value="&lt;span style=&quot;font-size: 12px&quot;&gt;+ recibirNuevos(String, String): List&amp;lt;Correo&amp;gt;&lt;/span&gt;" style="text;html=1;strokeColor=none;fillColor=none;align=left;verticalAlign=middle;spacingLeft=4;spacingRight=4;overflow=hidden;rotatable=0;points=[[0,0.5],[1,0.5]];portConstraint=eastwest;labelBackgroundColor=none;labelBorderColor=none;fontSize=11;" parent="HtaL5qtSipClP9a9sMlD-105" vertex="1">
          <mxGeometry y="38" width="250" height="20" as="geometry" />
        </mxCell>
        <mxCell id="HtaL5qtSipClP9a9sMlD-108" value="&lt;span style=&quot;font-size: 12px&quot;&gt;+ conectar(String, String): void&lt;/span&gt;" style="text;html=1;strokeColor=none;fillColor=none;align=left;verticalAlign=middle;spacingLeft=4;spacingRight=4;overflow=hidden;rotatable=0;points=[[0,0.5],[1,0.5]];portConstraint=eastwest;labelBackgroundColor=none;labelBorderColor=none;fontSize=11;" parent="HtaL5qtSipClP9a9sMlD-105" vertex="1">
          <mxGeometry y="58" width="250" height="20" as="geometry" />
        </mxCell>
        <mxCell id="HtaL5qtSipClP9a9sMlD-109" value="&lt;span style=&quot;font-size: 12px&quot;&gt;+ enviar(Correo): void&lt;/span&gt;" style="text;html=1;strokeColor=none;fillColor=none;align=left;verticalAlign=middle;spacingLeft=4;spacingRight=4;overflow=hidden;rotatable=0;points=[[0,0.5],[1,0.5]];portConstraint=eastwest;labelBackgroundColor=none;labelBorderColor=none;fontSize=11;" parent="HtaL5qtSipClP9a9sMlD-105" vertex="1">
          <mxGeometry y="78" width="250" height="20" as="geometry" />
        </mxCell>
        <mxCell id="HtaL5qtSipClP9a9sMlD-110" value="&lt;span style=&quot;font-size: 12px&quot;&gt;+ tazaDeTransferencia(): float&lt;/span&gt;" style="text;html=1;strokeColor=none;fillColor=none;align=left;verticalAlign=middle;spacingLeft=4;spacingRight=4;overflow=hidden;rotatable=0;points=[[0,0.5],[1,0.5]];portConstraint=eastwest;labelBackgroundColor=none;labelBorderColor=none;fontSize=11;" parent="HtaL5qtSipClP9a9sMlD-105" vertex="1">
          <mxGeometry y="98" width="250" height="20" as="geometry" />
        </mxCell>
        <mxCell id="HtaL5qtSipClP9a9sMlD-111" value="&lt;span style=&quot;font-size: 12px&quot;&gt;+ resetear(): void&lt;/span&gt;" style="text;html=1;strokeColor=none;fillColor=none;align=left;verticalAlign=middle;spacingLeft=4;spacingRight=4;overflow=hidden;rotatable=0;points=[[0,0.5],[1,0.5]];portConstraint=eastwest;labelBackgroundColor=none;labelBorderColor=none;fontSize=11;" parent="HtaL5qtSipClP9a9sMlD-105" vertex="1">
          <mxGeometry y="118" width="250" height="20" as="geometry" />
        </mxCell>
        <mxCell id="HtaL5qtSipClP9a9sMlD-112" value="&lt;span style=&quot;font-size: 12px&quot;&gt;+ realizarBackUp(): void&lt;/span&gt;" style="text;html=1;strokeColor=none;fillColor=none;align=left;verticalAlign=middle;spacingLeft=4;spacingRight=4;overflow=hidden;rotatable=0;points=[[0,0.5],[1,0.5]];portConstraint=eastwest;labelBackgroundColor=none;labelBorderColor=none;fontSize=11;" parent="HtaL5qtSipClP9a9sMlD-105" vertex="1">
          <mxGeometry y="138" width="250" height="20" as="geometry" />
        </mxCell>
        <mxCell id="HtaL5qtSipClP9a9sMlD-113" value="&lt;span style=&quot;font-size: 12px ; font-weight: 700&quot;&gt;ClienteEMail&lt;/span&gt;" style="swimlane;fontStyle=0;align=center;verticalAlign=top;childLayout=stackLayout;horizontal=1;startSize=30;horizontalStack=0;resizeParent=1;resizeParentMax=0;resizeLast=0;collapsible=0;marginBottom=0;html=1;labelBackgroundColor=none;labelBorderColor=none;fontSize=11;" parent="1" vertex="1">
          <mxGeometry x="10" y="-1098" width="250" height="238" as="geometry" />
        </mxCell>
        <mxCell id="HtaL5qtSipClP9a9sMlD-115" value="&lt;span style=&quot;font-size: 12px&quot;&gt;nombreUsuario: String&lt;/span&gt;" style="text;html=1;strokeColor=none;fillColor=none;align=left;verticalAlign=middle;spacingLeft=4;spacingRight=4;overflow=hidden;rotatable=0;points=[[0,0.5],[1,0.5]];portConstraint=eastwest;labelBackgroundColor=none;labelBorderColor=none;fontSize=11;" parent="HtaL5qtSipClP9a9sMlD-113" vertex="1">
          <mxGeometry y="30" width="250" height="20" as="geometry" />
        </mxCell>
        <mxCell id="HtaL5qtSipClP9a9sMlD-121" value="&lt;span style=&quot;font-size: 12px&quot;&gt;passusuario: String&lt;/span&gt;" style="text;html=1;strokeColor=none;fillColor=none;align=left;verticalAlign=middle;spacingLeft=4;spacingRight=4;overflow=hidden;rotatable=0;points=[[0,0.5],[1,0.5]];portConstraint=eastwest;labelBackgroundColor=none;labelBorderColor=none;fontSize=11;" parent="HtaL5qtSipClP9a9sMlD-113" vertex="1">
          <mxGeometry y="50" width="250" height="20" as="geometry" />
        </mxCell>
        <mxCell id="HtaL5qtSipClP9a9sMlD-114" value="" style="line;strokeWidth=1;fillColor=none;align=left;verticalAlign=middle;spacingTop=-1;spacingLeft=3;spacingRight=3;rotatable=0;labelPosition=right;points=[];portConstraint=eastwest;labelBackgroundColor=none;labelBorderColor=none;fontSize=11;html=1;" parent="HtaL5qtSipClP9a9sMlD-113" vertex="1">
          <mxGeometry y="70" width="250" height="8" as="geometry" />
        </mxCell>
        <mxCell id="HtaL5qtSipClP9a9sMlD-116" value="&lt;span style=&quot;font-size: 12px&quot;&gt;&lt;u&gt;&lt;i&gt;+ new(ServidorPop, String, String)&lt;/i&gt;&lt;/u&gt;&lt;/span&gt;" style="text;html=1;strokeColor=none;fillColor=none;align=left;verticalAlign=middle;spacingLeft=4;spacingRight=4;overflow=hidden;rotatable=0;points=[[0,0.5],[1,0.5]];portConstraint=eastwest;labelBackgroundColor=none;labelBorderColor=none;fontSize=11;" parent="HtaL5qtSipClP9a9sMlD-113" vertex="1">
          <mxGeometry y="78" width="250" height="20" as="geometry" />
        </mxCell>
        <mxCell id="HtaL5qtSipClP9a9sMlD-117" value="&lt;span style=&quot;font-size: 12px&quot;&gt;+ conectar(): void&lt;/span&gt;" style="text;html=1;strokeColor=none;fillColor=none;align=left;verticalAlign=middle;spacingLeft=4;spacingRight=4;overflow=hidden;rotatable=0;points=[[0,0.5],[1,0.5]];portConstraint=eastwest;labelBackgroundColor=none;labelBorderColor=none;fontSize=11;" parent="HtaL5qtSipClP9a9sMlD-113" vertex="1">
          <mxGeometry y="98" width="250" height="20" as="geometry" />
        </mxCell>
        <mxCell id="HtaL5qtSipClP9a9sMlD-118" value="&lt;span style=&quot;font-size: 12px&quot;&gt;+ borrarCorreo(Correo): void&lt;/span&gt;" style="text;html=1;strokeColor=none;fillColor=none;align=left;verticalAlign=middle;spacingLeft=4;spacingRight=4;overflow=hidden;rotatable=0;points=[[0,0.5],[1,0.5]];portConstraint=eastwest;labelBackgroundColor=none;labelBorderColor=none;fontSize=11;" parent="HtaL5qtSipClP9a9sMlD-113" vertex="1">
          <mxGeometry y="118" width="250" height="20" as="geometry" />
        </mxCell>
        <mxCell id="HtaL5qtSipClP9a9sMlD-119" value="&lt;span style=&quot;font-size: 12px&quot;&gt;+ contarBorrados(): int&lt;/span&gt;" style="text;html=1;strokeColor=none;fillColor=none;align=left;verticalAlign=middle;spacingLeft=4;spacingRight=4;overflow=hidden;rotatable=0;points=[[0,0.5],[1,0.5]];portConstraint=eastwest;labelBackgroundColor=none;labelBorderColor=none;fontSize=11;" parent="HtaL5qtSipClP9a9sMlD-113" vertex="1">
          <mxGeometry y="138" width="250" height="20" as="geometry" />
        </mxCell>
        <mxCell id="HtaL5qtSipClP9a9sMlD-120" value="&lt;span style=&quot;font-size: 12px&quot;&gt;+ contarInbox(): int&lt;/span&gt;" style="text;html=1;strokeColor=none;fillColor=none;align=left;verticalAlign=middle;spacingLeft=4;spacingRight=4;overflow=hidden;rotatable=0;points=[[0,0.5],[1,0.5]];portConstraint=eastwest;labelBackgroundColor=none;labelBorderColor=none;fontSize=11;" parent="HtaL5qtSipClP9a9sMlD-113" vertex="1">
          <mxGeometry y="158" width="250" height="20" as="geometry" />
        </mxCell>
        <mxCell id="HtaL5qtSipClP9a9sMlD-122" value="&lt;span style=&quot;font-size: 12px&quot;&gt;+ eliminarBorrado(Correo): void&lt;/span&gt;" style="text;html=1;strokeColor=none;fillColor=none;align=left;verticalAlign=middle;spacingLeft=4;spacingRight=4;overflow=hidden;rotatable=0;points=[[0,0.5],[1,0.5]];portConstraint=eastwest;labelBackgroundColor=none;labelBorderColor=none;fontSize=11;" parent="HtaL5qtSipClP9a9sMlD-113" vertex="1">
          <mxGeometry y="178" width="250" height="20" as="geometry" />
        </mxCell>
        <mxCell id="HtaL5qtSipClP9a9sMlD-123" value="&lt;span style=&quot;font-size: 12px&quot;&gt;+ recibirNuevos(): void&lt;/span&gt;" style="text;html=1;strokeColor=none;fillColor=none;align=left;verticalAlign=middle;spacingLeft=4;spacingRight=4;overflow=hidden;rotatable=0;points=[[0,0.5],[1,0.5]];portConstraint=eastwest;labelBackgroundColor=none;labelBorderColor=none;fontSize=11;" parent="HtaL5qtSipClP9a9sMlD-113" vertex="1">
          <mxGeometry y="198" width="250" height="20" as="geometry" />
        </mxCell>
        <mxCell id="HtaL5qtSipClP9a9sMlD-124" value="&lt;span style=&quot;font-size: 12px&quot;&gt;+ enviarCorreo(String, String, String): void&lt;/span&gt;" style="text;html=1;strokeColor=none;fillColor=none;align=left;verticalAlign=middle;spacingLeft=4;spacingRight=4;overflow=hidden;rotatable=0;points=[[0,0.5],[1,0.5]];portConstraint=eastwest;labelBackgroundColor=none;labelBorderColor=none;fontSize=11;" parent="HtaL5qtSipClP9a9sMlD-113" vertex="1">
          <mxGeometry y="218" width="250" height="20" as="geometry" />
        </mxCell>
        <mxCell id="3TjpAF9KTR2tl5fqbvKF-1" value="&lt;h1 style=&quot;font-size: 15px;&quot;&gt;&lt;font style=&quot;font-size: 15px;&quot;&gt;Violaciones del principio solid&lt;/font&gt;&lt;/h1&gt;&lt;p style=&quot;line-height: 1.38; margin-top: 0pt; margin-bottom: 0pt; font-size: 15px;&quot; dir=&quot;ltr&quot;&gt;&lt;span style=&quot;font-family: Arial; color: rgb(0, 0, 0); background-color: transparent; font-weight: 400; font-style: normal; font-variant: normal; text-decoration: none; vertical-align: baseline;&quot;&gt;&lt;font style=&quot;font-size: 13px;&quot;&gt;Principio Single Responsibility&lt;/font&gt;&lt;/span&gt;&lt;/p&gt;&lt;p style=&quot;line-height: 1.38; margin-top: 0pt; margin-bottom: 0pt; font-size: 13px;&quot; dir=&quot;ltr&quot;&gt;&lt;span style=&quot;font-family: Arial; color: rgb(0, 0, 0); background-color: transparent; font-weight: 400; font-style: normal; font-variant: normal; text-decoration: none; vertical-align: baseline;&quot;&gt;&lt;font style=&quot;font-size: 13px;&quot;&gt;El Cliente no solo puede ver los emails sino que tambien se ocupa de hacer una conexion al backend y conectarse mediante loging.&lt;/font&gt;&lt;/span&gt;&lt;/p&gt;&lt;p style=&quot;line-height: 1.38; margin-top: 0pt; margin-bottom: 0pt; font-size: 13px;&quot; dir=&quot;ltr&quot;&gt;&lt;span style=&quot;font-family: Arial; color: rgb(0, 0, 0); background-color: transparent; font-weight: 400; font-style: normal; font-variant: normal; text-decoration: none; vertical-align: baseline;&quot;&gt;&lt;font style=&quot;font-size: 13px;&quot;&gt;El cliente tambien se encarga de crear el correo, este solo deberia enviarle el mensaje al servidor y que el servidor se encarge de mandar el msg.&lt;/font&gt;&lt;/span&gt;&lt;/p&gt;&lt;p style=&quot;line-height: 1.38; margin-top: 0pt; margin-bottom: 0pt; font-size: 13px;&quot; dir=&quot;ltr&quot;&gt;&lt;span style=&quot;font-family: Arial; color: rgb(0, 0, 0); background-color: transparent; font-weight: 400; font-style: normal; font-variant: normal; text-decoration: none; vertical-align: baseline;&quot;&gt;&lt;font style=&quot;font-size: 13px;&quot;&gt;Principio open closed&lt;/font&gt;&lt;/span&gt;&lt;/p&gt;&lt;p style=&quot;line-height: 1.38; margin-top: 0pt; margin-bottom: 0pt; font-size: 13px;&quot; dir=&quot;ltr&quot;&gt;&lt;span style=&quot;font-family: Arial; color: rgb(0, 0, 0); background-color: transparent; font-weight: 400; font-style: normal; font-variant: normal; text-decoration: none; vertical-align: baseline;&quot;&gt;&lt;font style=&quot;font-size: 13px;&quot;&gt;Los atributos del cliente no son privados, por lo cual rompe con el principio de closed ya que si se desea se puede cambiar nuetro user o password desde cualquier parte de nuestro programa. Solo deberian pasarse por constructor para cada Loging.&lt;/font&gt;&lt;/span&gt;&lt;/p&gt;&lt;p style=&quot;line-height: 1.38; margin-top: 0pt; margin-bottom: 0pt; font-size: 13px;&quot; dir=&quot;ltr&quot;&gt;&lt;span style=&quot;font-family: Arial; color: rgb(0, 0, 0); background-color: transparent; font-weight: 400; font-style: normal; font-variant: normal; text-decoration: none; vertical-align: baseline;&quot;&gt;&lt;font style=&quot;font-size: 13px;&quot;&gt;Se tipa con la clase ServidorPop, si en un futuro se desea implementar otro servidor para que use nuestro cliente entonces estamos atados a usar el ServidorPop para esto conviene usar nuestra interface IServidor.&lt;/font&gt;&lt;/span&gt;&lt;/p&gt;&lt;p style=&quot;line-height: 1.38; margin-top: 0pt; margin-bottom: 0pt; font-size: 13px;&quot; dir=&quot;ltr&quot;&gt;&lt;span style=&quot;font-family: Arial; color: rgb(0, 0, 0); background-color: transparent; font-weight: 400; font-style: normal; font-variant: normal; text-decoration: none; vertical-align: baseline;&quot;&gt;&lt;font style=&quot;font-size: 13px;&quot;&gt;El mensaje conectar() puede ser llamado desde cualquier parte, solo deberia instanciarse cuando se crea la instancia de nuestro cliente.&lt;/font&gt;&lt;/span&gt;&lt;/p&gt;&lt;p style=&quot;line-height: 1.38; margin-top: 0pt; margin-bottom: 0pt; font-size: 13px;&quot; dir=&quot;ltr&quot;&gt;&lt;span style=&quot;font-family: Arial; color: rgb(0, 0, 0); background-color: transparent; font-weight: 400; font-style: normal; font-variant: normal; text-decoration: none; vertical-align: baseline;&quot;&gt;&lt;font style=&quot;font-size: 13px;&quot;&gt;Si en un futuro cambiamos nuestro cliente, o necesitamos agregar mas responsabilidades estas podrian modificar nuestro codigo ya funcional. Para esto conviene agregar una clase abstracta Cliente generica a nuestro dominio.&lt;/font&gt;&lt;/span&gt;&lt;/p&gt;&lt;p style=&quot;line-height: 1.38; margin-top: 0pt; margin-bottom: 0pt; font-size: 13px;&quot; dir=&quot;ltr&quot;&gt;&lt;span style=&quot;font-family: Arial; color: rgb(0, 0, 0); background-color: transparent; font-weight: 400; font-style: normal; font-variant: normal; text-decoration: none; vertical-align: baseline;&quot;&gt;&lt;font style=&quot;font-size: 13px;&quot;&gt;No cumple con el principio open close, porque si el servidor cambiara la clase ClienteEMail tendria que cambiar su comportamiento, por ejemplo incluyendo un servidor SMTP no se comporta como un servidor POP.&lt;/font&gt;&lt;/span&gt;&lt;/p&gt;&lt;p style=&quot;line-height: 1.38; margin-top: 0pt; margin-bottom: 0pt; font-size: 13px;&quot; dir=&quot;ltr&quot;&gt;&lt;span style=&quot;font-family: Arial; color: rgb(0, 0, 0); background-color: transparent; font-weight: 400; font-style: normal; font-variant: normal; text-decoration: none; vertical-align: baseline;&quot;&gt;&lt;font style=&quot;font-size: 13px;&quot;&gt;El principio de Liskov no esta explicamente incluido en el codigo, ya que este esta ligado a la herencia. De igual forma, al no implementar herencia esta rompiendo el principio.&lt;/font&gt;&lt;/span&gt;&lt;/p&gt;&lt;p style=&quot;line-height: 1.38; margin-top: 0pt; margin-bottom: 0pt; font-size: 13px;&quot; dir=&quot;ltr&quot;&gt;&lt;span style=&quot;background-color: initial;&quot;&gt;El principio de segregacion de interfaces se rompe cuando IServidor tiene muchas interfaces y no se segregan, deberia existir mas interfaces que se ocupen de cosas en especificos y despues tener una interface general como IServidor que pueda ser usada como implementacion&lt;/span&gt;&lt;/p&gt;&lt;p style=&quot;line-height: 1.38; margin-top: 0pt; margin-bottom: 0pt; font-size: 13px;&quot; dir=&quot;ltr&quot;&gt;&lt;span style=&quot;font-family: Arial; color: rgb(0, 0, 0); background-color: transparent; font-weight: 400; font-style: normal; font-variant: normal; text-decoration: none; vertical-align: baseline;&quot;&gt;&lt;font style=&quot;font-size: 13px;&quot;&gt;El principio de inyeccion de dependencias se rompe al no usar el tipado de la interface y usar la clase concreta.&lt;/font&gt;&lt;/span&gt;&lt;/p&gt;&lt;p style=&quot;line-height: 1.38; margin-top: 0pt; margin-bottom: 0pt; font-size: 13px;&quot; dir=&quot;ltr&quot;&gt;&lt;span style=&quot;background-color: transparent; font-family: Arial;&quot;&gt;Como por ejemplo usar ArrayList y no List, o usar no usar IServidor y usar ServidorPop.&lt;/span&gt;&lt;/p&gt;&lt;div style=&quot;font-size: 13px;&quot;&gt;&lt;span style=&quot;font-family: Arial; color: rgb(0, 0, 0); background-color: transparent; font-weight: 400; font-style: normal; font-variant: normal; text-decoration: none; vertical-align: baseline;&quot;&gt;&lt;br&gt;&lt;/span&gt;&lt;/div&gt;" style="text;html=1;strokeColor=none;fillColor=none;spacing=5;spacingTop=-20;whiteSpace=wrap;overflow=hidden;rounded=0;" vertex="1" parent="1">
          <mxGeometry x="30" y="-750" width="960" height="380" as="geometry" />
        </mxCell>
        <mxCell id="3TjpAF9KTR2tl5fqbvKF-2" value="implements" style="text;html=1;strokeColor=none;fillColor=none;align=center;verticalAlign=middle;whiteSpace=wrap;rounded=0;" vertex="1" parent="1">
          <mxGeometry x="680" y="-1079" width="40" height="20" as="geometry" />
        </mxCell>
      </root>
    </mxGraphModel>
  </diagram>
</mxfile>
